<svg width="50" height="46" viewBox="0 0 50 46" fill="none" xmlns="http://www.w3.org/2000/svg">
<g filter="url(#filter0_d_97_12)">
<path d="M12.1875 29.4828C13.9583 28.3621 15.9375 27.4784 18.125 26.8319C20.3125 26.1853 22.6042 25.8621 25 25.8621C27.3958 25.8621 29.6875 26.1853 31.875 26.8319C34.0625 27.4784 36.0417 28.3621 37.8125 29.4828C39.0278 28.3046 39.974 26.9684 40.651 25.4741C41.3281 23.9799 41.6667 22.3851 41.6667 20.6896C41.6667 16.8678 40.0434 13.6135 36.7969 10.9267C33.5504 8.23994 29.6181 6.89655 25 6.89655C20.3819 6.89655 16.4497 8.23994 13.2031 10.9267C9.9566 13.6135 8.33334 16.8678 8.33334 20.6896C8.33334 22.3851 8.67188 23.9799 9.34896 25.4741C10.026 26.9684 10.9722 28.3046 12.1875 29.4828ZM25 22.4138C22.9514 22.4138 21.224 21.8319 19.8177 20.6681C18.4115 19.5043 17.7083 18.0747 17.7083 16.3793C17.7083 14.6839 18.4115 13.2543 19.8177 12.0905C21.224 10.9267 22.9514 10.3448 25 10.3448C27.0486 10.3448 28.776 10.9267 30.1823 12.0905C31.5885 13.2543 32.2917 14.6839 32.2917 16.3793C32.2917 18.0747 31.5885 19.5043 30.1823 20.6681C28.776 21.8319 27.0486 22.4138 25 22.4138ZM25 37.931C22.1181 37.931 19.4097 37.4784 16.875 36.5733C14.3403 35.6681 12.1354 34.4396 10.2604 32.8879C8.38542 31.3362 6.90105 29.5115 5.8073 27.4138C4.71355 25.3161 4.16667 23.0747 4.16667 20.6896C4.16667 18.3046 4.71355 16.0632 5.8073 13.9655C6.90105 11.8678 8.38542 10.0431 10.2604 8.49138C12.1354 6.93965 14.3403 5.7112 16.875 4.80603C19.4097 3.90086 22.1181 3.44827 25 3.44827C27.8819 3.44827 30.5903 3.90086 33.125 4.80603C35.6597 5.7112 37.8646 6.93965 39.7396 8.49138C41.6146 10.0431 43.099 11.8678 44.1927 13.9655C45.2865 16.0632 45.8333 18.3046 45.8333 20.6896C45.8333 23.0747 45.2865 25.3161 44.1927 27.4138C43.099 29.5115 41.6146 31.3362 39.7396 32.8879C37.8646 34.4396 35.6597 35.6681 33.125 36.5733C30.5903 37.4784 27.8819 37.931 25 37.931Z" fill="white"/>
</g>
<defs>
<filter id="filter0_d_97_12" x="-4" y="0" width="58" height="49.3793" filterUnits="userSpaceOnUse" color-interpolation-filters="sRGB">
<feFlood flood-opacity="0" result="BackgroundImageFix"/>
<feColorMatrix in="SourceAlpha" type="matrix" values="0 0 0 0 0 0 0 0 0 0 0 0 0 0 0 0 0 0 127 0" result="hardAlpha"/>
<feOffset dy="4"/>
<feGaussianBlur stdDeviation="2"/>
<feComposite in2="hardAlpha" operator="out"/>
<feColorMatrix type="matrix" values="0 0 0 0 0 0 0 0 0 0 0 0 0 0 0 0 0 0 0.25 0"/>
<feBlend mode="normal" in2="BackgroundImageFix" result="effect1_dropShadow_97_12"/>
<feBlend mode="normal" in="SourceGraphic" in2="effect1_dropShadow_97_12" result="shape"/>
</filter>
</defs>
</svg>
