<svg width="14" height="18" viewBox="0 0 14 18" fill="none" xmlns="http://www.w3.org/2000/svg">
<path d="M11.1375 0.0769926C11.262 0.14082 11.3584 0.240097 11.4109 0.358606C11.4634 0.477116 11.4688 0.607851 11.4264 0.729455L9.13428 7.31258H13.3634C13.4877 7.31254 13.6093 7.34466 13.7131 7.40499C13.817 7.46533 13.8986 7.55122 13.9479 7.65208C13.9971 7.75293 14.0119 7.86433 13.9904 7.97253C13.9688 8.08072 13.9119 8.18097 13.8267 8.2609L3.64521 17.8229C3.5467 17.9155 3.41561 17.9758 3.2733 17.9941C3.131 18.0124 2.98587 17.9876 2.86158 17.9237C2.7373 17.8597 2.64117 17.7605 2.58888 17.6421C2.53658 17.5237 2.5312 17.3931 2.57361 17.2716L4.86571 10.6874H0.636594C0.512311 10.6874 0.390733 10.6553 0.286869 10.595C0.183005 10.5346 0.101403 10.4487 0.0521348 10.3479C0.00286682 10.247 -0.0119097 10.1356 0.00962931 10.0274C0.0311683 9.91925 0.0880797 9.819 0.173338 9.73907L10.3548 0.177112C10.4532 0.0846412 10.5841 0.0243103 10.7262 0.00592874C10.8683 -0.0124528 11.0132 0.0121961 11.1375 0.0758676V0.0769926ZM2.10909 9.56245H5.72732C5.8269 9.56244 5.9251 9.58308 6.01402 9.62272C6.10293 9.66236 6.18008 9.7199 6.23925 9.79069C6.29843 9.86149 6.33798 9.94358 6.35472 10.0303C6.37147 10.1171 6.36494 10.2062 6.33566 10.2903L4.59463 15.2884L11.8896 8.43752H8.27268C8.1731 8.43753 8.0749 8.41689 7.98598 8.37725C7.89707 8.33761 7.81992 8.28007 7.76074 8.20928C7.70157 8.13848 7.66202 8.05639 7.64528 7.96962C7.62853 7.88285 7.63506 7.79382 7.66434 7.70968L9.40537 2.71159L2.10909 9.56245Z" fill="white"/>
</svg>
