<svg width="43" height="37" viewBox="0 0 43 37" fill="none" xmlns="http://www.w3.org/2000/svg">
<path fill-rule="evenodd" clip-rule="evenodd" d="M37.6613 17.8238C39.3036 16.1554 40.2159 13.9028 40.1976 11.5616C40.1793 9.22034 39.2319 6.98229 37.5638 5.33974C36.7378 4.52643 35.7598 3.88381 34.6856 3.44855C33.6113 3.0133 32.4618 2.79394 31.3028 2.803C28.9621 2.8213 26.7245 3.76889 25.0823 5.43731C24.6364 5.88333 24.0696 6.4308 23.3822 7.0797L21.4707 8.88006L19.5592 7.0797C18.8702 6.42925 18.3027 5.88179 17.8568 5.43731C16.2016 3.78183 13.9567 2.85179 11.616 2.85179C9.27527 2.85179 7.03041 3.78183 5.37525 5.43731C1.96572 8.84986 1.92623 14.3671 5.24983 17.7959L21.4707 34.02L37.6613 17.8238ZM3.40339 3.46737C4.48178 2.38847 5.76211 1.53263 7.17125 0.948718C8.58039 0.364807 10.0907 0.0642686 11.616 0.0642686C13.1413 0.0642686 14.6516 0.364807 16.0608 0.948718C17.4699 1.53263 18.7502 2.38847 19.8286 3.46737C20.2513 3.89171 20.7987 4.41982 21.4707 5.05168C22.1396 4.41982 22.6869 3.89094 23.1127 3.46505C25.2739 1.27016 28.2183 0.0238645 31.2982 0.000339161C34.3781 -0.0231862 37.3412 1.17798 39.5357 3.3396C41.7301 5.50122 42.9761 8.44622 42.9997 11.5267C43.0232 14.6073 41.8223 17.571 39.6611 19.7658L23.1127 36.3198C22.6772 36.7554 22.0865 37 21.4707 37C20.8548 37 20.2642 36.7554 19.8286 36.3198L3.27565 19.7635C1.15291 17.5738 -0.0235436 14.6369 0.000357176 11.5869C0.024258 8.53701 1.24659 5.61887 3.40339 3.46272V3.46737Z" fill="white"/>
</svg>
