<svg width="32" height="24" viewBox="0 0 32 24" fill="none" xmlns="http://www.w3.org/2000/svg">
<path d="M14.1872 23.3605C13.7585 23.77 13.1772 24 12.5711 24C11.965 24 11.3837 23.77 10.9551 23.3605L0.669237 13.5311C0.240725 13.1215 0 12.566 0 11.9868C0 11.4076 0.240725 10.8521 0.669237 10.4425L10.9551 0.613156C11.3862 0.215268 11.9636 -0.00489569 12.5629 8.10623e-05C13.1622 0.00505782 13.7355 0.234777 14.1593 0.639764C14.5831 1.04475 14.8235 1.5926 14.8287 2.16532C14.8339 2.73804 14.6035 3.28979 14.1872 3.70176L7.99963 9.80251L29.7143 9.80251C30.3205 9.80251 30.9019 10.0326 31.3305 10.4423C31.7592 10.8519 32 11.4075 32 11.9868C32 12.5661 31.7592 13.1217 31.3305 13.5313C30.9019 13.941 30.3205 14.1711 29.7143 14.1711L7.99963 14.1711L14.1872 20.2719C14.6157 20.6815 14.8564 21.237 14.8564 21.8162C14.8564 22.3954 14.6157 22.9508 14.1872 23.3605Z" fill="white"/>
</svg>
