<svg width="28" height="28" viewBox="0 0 28 28" fill="none" xmlns="http://www.w3.org/2000/svg">
<path d="M14 28C12.0633 28 10.2433 27.6323 8.54 26.8968C6.83666 26.1613 5.355 25.1641 4.095 23.905C2.835 22.6459 1.83773 21.1643 1.1032 19.46C0.368668 17.7557 0.000935105 15.9357 1.77215e-06 14C-0.000931561 12.0643 0.366802 10.2443 1.1032 8.54C1.8396 6.83573 2.83687 5.35407 4.095 4.095C5.35313 2.83593 6.8348 1.83867 8.54 1.1032C10.2452 0.367733 12.0652 0 14 0C15.9348 0 17.7548 0.367733 19.46 1.1032C21.1652 1.83867 22.6469 2.83593 23.905 4.095C25.1631 5.35407 26.1609 6.83573 26.8982 8.54C27.6355 10.2443 28.0028 12.0643 28 14C27.9972 15.9357 27.6294 17.7557 26.8968 19.46C26.1641 21.1643 25.1669 22.6459 23.905 23.905C22.6431 25.1641 21.1615 26.1618 19.46 26.8982C17.7585 27.6346 15.9385 28.0019 14 28ZM14 25.2C15.26 25.2 16.4733 24.9961 17.64 24.5882C18.8067 24.1803 19.88 23.5909 20.86 22.82L5.18 7.14C4.41 8.12 3.8206 9.19333 3.4118 10.36C3.003 11.5267 2.79907 12.74 2.8 14C2.8 17.1267 3.885 19.775 6.055 21.945C8.225 24.115 10.8733 25.2 14 25.2ZM22.82 20.86C23.59 19.88 24.1794 18.8067 24.5882 17.64C24.997 16.4733 25.2009 15.26 25.2 14C25.2 10.8733 24.115 8.225 21.945 6.055C19.775 3.885 17.1267 2.8 14 2.8C12.74 2.8 11.5267 3.00393 10.36 3.4118C9.19333 3.81967 8.12 4.40907 7.14 5.18L22.82 20.86Z" fill="white"/>
</svg>
